<svg width="48" height="59" viewBox="0 0 48 59" fill="none" xmlns="http://www.w3.org/2000/svg">
<g clip-path="url(#clip0_537_1580)">
<mask id="mask0_537_1580" style="mask-type:luminance" maskUnits="userSpaceOnUse" x="-1" y="0" width="49" height="59">
<path d="M-0.351562 0.0684204H47.0738V58.5154H-0.351562V0.0684204Z" fill="white"/>
</mask>
<g mask="url(#mask0_537_1580)">
<path d="M23.3578 11.9557C16.8694 11.9557 11.592 17.2208 11.592 23.6942C11.592 30.1669 16.8694 35.4327 23.3578 35.4327C29.8455 35.4327 35.1228 30.1669 35.1228 23.6942C35.1228 17.2208 29.8455 11.9557 23.3578 11.9557ZM23.3578 33.6093C17.8745 33.6093 13.4196 29.1646 13.4196 23.6942C13.4196 18.2239 17.8745 13.7792 23.3578 13.7792C28.8404 13.7792 33.2953 18.2239 33.2953 23.6942C33.2953 29.1646 28.8404 33.6093 23.3578 33.6093ZM-0.128405 24.2296L3.35609 29.039L2.76154 34.9425C2.72756 35.3297 2.93283 35.7057 3.29876 35.8651L8.72475 38.2818L11.1461 43.7063C11.3061 44.071 11.6833 44.2763 12.0712 44.2417L13.6482 44.0823V57.5299C13.6482 57.8495 13.8195 58.1458 14.0934 58.3165C14.3673 58.4759 14.7099 58.4872 14.9958 58.339L23.3231 53.9176L31.6504 58.339C31.7877 58.4075 31.9363 58.442 32.0842 58.442C32.2442 58.442 32.4162 58.3962 32.5528 58.3165C32.8274 58.157 32.9987 57.8608 32.9987 57.5299V44.0823L34.6316 44.253C34.6663 44.253 34.6889 44.253 34.7236 44.253C35.0775 44.253 35.4088 44.0484 35.5574 43.7176L37.9901 38.2931L43.4274 35.8771C43.7934 35.717 43.9986 35.341 43.9646 34.9538L43.3588 29.0503L46.8433 24.2409C47.0712 23.9221 47.0712 23.489 46.8433 23.1701L43.3588 18.3607L43.9646 12.446C44.0099 12.058 43.7934 11.682 43.4274 11.5226L37.9901 9.09536L35.5574 3.67087C35.3974 3.31747 35.0202 3.10091 34.6316 3.13477L28.7151 3.7393L23.8943 0.263106C23.5744 0.0352634 23.1405 0.0352634 22.8206 0.263106L17.9997 3.7393L12.0833 3.14606C11.6947 3.1122 11.3174 3.31747 11.1575 3.68216L8.72475 9.09536L3.28743 11.5113C2.9215 11.6708 2.71624 12.0467 2.75021 12.4347L3.34406 18.3494L-0.13973 23.1581C-0.356316 23.4777 -0.356316 23.9108 -0.128405 24.2296ZM23.3578 39.4436C14.6533 39.4436 7.57103 32.3784 7.57103 23.6942C7.57103 15.0101 14.6533 7.94416 23.3578 7.94416C32.0616 7.94416 39.1438 15.0101 39.1438 23.6942C39.1438 32.3784 32.0616 39.4436 23.3578 39.4436ZM23.757 52.0829C23.4944 51.946 23.1631 51.946 22.9005 52.0829L15.4871 56.014V39.421C17.8631 40.6061 20.5358 41.279 23.3578 41.279C26.1557 41.279 28.8177 40.6181 31.1705 39.4556V42.7145C31.1365 42.7942 31.1138 42.8859 31.1025 42.9769C31.0905 43.1363 31.1138 43.2845 31.1705 43.4213V56.014L23.757 52.0829ZM5.04631 19.1353C5.1723 18.9533 5.24025 18.7367 5.2176 18.5089L4.64641 12.913L9.79848 10.6225C10.0037 10.5315 10.1637 10.3714 10.255 10.1669L12.5624 5.02664L18.1717 5.5966C18.3997 5.61917 18.6169 5.56204 18.7996 5.4259L23.3691 2.1324L27.938 5.4259C28.1206 5.55075 28.3379 5.61917 28.5665 5.5966L34.1751 5.02664L36.4825 10.1669C36.5738 10.3714 36.7338 10.5315 36.939 10.6225L42.0911 12.913L41.5199 18.5089C41.4973 18.7367 41.5539 18.9533 41.6912 19.1353L44.9924 23.6942L41.6912 28.2525C41.5659 28.4352 41.4973 28.6518 41.5199 28.8796L42.0911 34.4748L36.939 36.7659C36.7338 36.8569 36.5738 37.0163 36.4825 37.2216L34.1638 42.3731L32.9987 42.2588V38.7601C32.9987 38.6465 32.9754 38.5435 32.9414 38.4525C37.7735 35.3184 40.9714 29.8827 40.9714 23.7055C40.9714 14.0183 33.0667 6.132 23.3578 6.132C13.6482 6.132 5.7435 14.0183 5.7435 23.7055C5.7435 29.8481 8.91868 35.2726 13.7282 38.418C13.6822 38.5209 13.6595 38.6345 13.6595 38.7601V42.2588L12.5511 42.3731L10.255 37.2329C10.1637 37.0276 10.0037 36.8682 9.79848 36.7772L4.64641 34.4868L5.2176 28.8909C5.24025 28.6743 5.18363 28.4465 5.04631 28.2638L1.74514 23.7055L5.04631 19.1353Z" fill="black"/>
</g>
</g>
<defs>
<clipPath id="clip0_537_1580">
<rect width="48" height="59" fill="white"/>
</clipPath>
</defs>
</svg>
